<svg width="217" height="187" xmlns="http://www.w3.org/2000/svg"><polygon points="81.839,45.000 133.801,45.000 133.801,15.000 81.839,15.000" style="fill:#000000;stroke:#000;stroke-width:1" /><polygon points="81.839,45.000 55.859,30.000 81.839,15.000" style="fill:#ff0000;stroke:#000;stroke-width:1" /><polygon points="81.839,15.000 107.820,0.000 133.801,15.000" style="fill:#000000;stroke:#000;stroke-width:1" /><polygon points="81.839,45.000 107.820,60.000 133.801,45.000" style="fill:#ff0000;stroke:#000;stroke-width:1" /><polygon points="133.801,45.000 159.782,30.000 133.801,15.000" style="fill:#000000;stroke:#000;stroke-width:1" /><polygon points="163.679,60.000 189.660,75.000 215.640,30.000 189.660,15.000" style="fill:#000000;stroke:#000;stroke-width:1" /><polygon points="163.679,60.000 163.679,30.000 189.660,15.000" style="fill:#000000;stroke:#000;stroke-width:1" /><polygon points="189.660,15.000 215.640,0.000 215.640,30.000" style="fill:#000000;stroke:#000;stroke-width:1" /><polygon points="163.679,60.000 163.679,90.000 189.660,75.000" style="fill:#000000;stroke:#000;stroke-width:1" /><polygon points="189.660,75.000 215.640,60.000 215.640,30.000" style="fill:#000000;stroke:#000;stroke-width:1" /><polygon points="109.119,91.500 135.100,106.500 161.081,61.500 135.100,46.500" style="fill:#000000;stroke:#000;stroke-width:1" /><polygon points="109.119,91.500 109.119,61.500 135.100,46.500" style="fill:#00ff00;stroke:#000;stroke-width:1" /><polygon points="135.100,46.500 161.081,31.500 161.081,61.500" style="fill:#000000;stroke:#000;stroke-width:1" /><polygon points="109.119,91.500 109.119,121.500 135.100,106.500" style="fill:#00ff00;stroke:#000;stroke-width:1" /><polygon points="135.100,106.500 161.081,91.500 161.081,61.500" style="fill:#000000;stroke:#000;stroke-width:1" /><polygon points="80.540,109.500 54.560,124.500 80.540,169.500 106.521,154.500" style="fill:#000000;stroke:#000;stroke-width:1" /><polygon points="80.540,109.500 106.521,124.500 106.521,154.500" style="fill:#ff8000;stroke:#000;stroke-width:1" /><polygon points="106.521,154.500 106.521,184.500 80.540,169.500" style="fill:#000000;stroke:#000;stroke-width:1" /><polygon points="80.540,109.500 54.560,94.500 54.560,124.500" style="fill:#ff8000;stroke:#000;stroke-width:1" /><polygon points="54.560,124.500 54.560,154.500 80.540,169.500" style="fill:#000000;stroke:#000;stroke-width:1" /><polygon points="54.560,61.500 80.540,106.500 106.521,91.500 80.540,46.500" style="fill:#ffffff;stroke:#000;stroke-width:1" /><polygon points="54.560,61.500 54.560,31.500 80.540,46.500" style="fill:#ffffff;stroke:#000;stroke-width:1" /><polygon points="80.540,46.500 106.521,61.500 106.521,91.500" style="fill:#ffffff;stroke:#000;stroke-width:1" /><polygon points="54.560,61.500 54.560,91.500 80.540,106.500" style="fill:#ffffff;stroke:#000;stroke-width:1" /><polygon points="80.540,106.500 106.521,121.500 106.521,91.500" style="fill:#ffffff;stroke:#000;stroke-width:1" /><polygon points="0.000,30.000 25.981,75.000 51.962,60.000 25.981,15.000" style="fill:#000000;stroke:#000;stroke-width:1" /><polygon points="0.000,30.000 0.000,0.000 25.981,15.000" style="fill:#000000;stroke:#000;stroke-width:1" /><polygon points="25.981,15.000 51.962,30.000 51.962,60.000" style="fill:#0000ff;stroke:#000;stroke-width:1" /><polygon points="0.000,30.000 0.000,60.000 25.981,75.000" style="fill:#000000;stroke:#000;stroke-width:1" /><polygon points="25.981,75.000 51.962,90.000 51.962,60.000" style="fill:#0000ff;stroke:#000;stroke-width:1" /></svg>